<?xml version="1.0" standalone="no"?>
<!DOCTYPE svg PUBLIC "-//W3C//DTD SVG 20010904//EN"
 "http://www.w3.org/TR/2001/REC-SVG-20010904/DTD/svg10.dtd">
<svg version="1.0" xmlns="http://www.w3.org/2000/svg"
 width="512.000000pt" height="512.000000pt" viewBox="0 0 512.000000 512.000000"
 preserveAspectRatio="xMidYMid meet">

<g transform="translate(0.000000,512.000000) scale(0.100000,-0.100000)"
fill="#ebebeb" stroke="none">
<path d="M2950 5104 c-151 -41 -265 -168 -290 -324 -13 -85 -14 -1483 0 -1564
21 -129 107 -242 227 -299 l68 -32 875 0 875 0 57 27 c77 36 132 81 174 145
71 107 68 67 71 891 3 446 0 771 -6 813 -24 178 -152 317 -320 349 -34 6 -355
10 -865 9 -681 0 -820 -3 -866 -15z m1735 -203 c59 -26 101 -80 114 -143 8
-38 11 -277 9 -789 -3 -806 0 -769 -64 -833 -58 -58 -22 -56 -917 -56 l-824 0
-44 23 c-29 16 -54 40 -74 72 l-30 48 0 766 c0 421 3 778 8 793 11 40 66 98
112 119 38 17 88 19 855 19 767 0 817 -2 855 -19z"/>
<path d="M3743 4699 c-158 -18 -289 -83 -409 -203 -142 -143 -206 -294 -207
-491 -1 -131 16 -205 73 -320 72 -147 174 -247 325 -320 118 -57 177 -70 310
-70 195 1 344 63 486 205 129 128 189 250 209 423 52 447 -335 828 -787 776z
m227 -216 c76 -21 153 -66 215 -128 200 -200 201 -506 3 -709 -200 -203 -511
-205 -714 -2 -152 152 -193 374 -103 565 107 229 353 342 599 274z"/>
<path d="M3548 4184 c-15 -8 -32 -23 -38 -34 -5 -10 -10 -80 -10 -155 l0 -137
29 -29 c40 -39 97 -41 134 -3 32 32 41 82 35 215 -4 99 -4 102 -36 130 -36 32
-72 36 -114 13z"/>
<path d="M3998 4171 l-33 -29 -3 -112 c-2 -62 -1 -128 3 -147 15 -81 108 -111
166 -54 l29 29 0 139 c0 116 -3 141 -18 159 -41 51 -97 57 -144 15z"/>
<path d="M780 4401 c-74 -23 -136 -78 -169 -151 -20 -43 -21 -64 -21 -442 l0
-396 -137 -4 c-159 -4 -190 -15 -260 -91 -61 -66 -75 -125 -71 -288 l3 -131
33 -29 c30 -27 38 -29 112 -29 l80 0 0 -338 c0 -305 2 -347 20 -416 27 -107
63 -169 145 -252 96 -98 197 -148 327 -162 l63 -7 6 -90 c3 -52 12 -103 21
-120 33 -62 122 -125 177 -125 20 0 20 -10 23 -467 4 -455 4 -470 26 -527 30
-81 72 -144 136 -204 116 -110 289 -156 439 -117 162 42 286 151 351 309 20
49 21 73 26 541 5 478 6 491 27 530 44 82 115 127 202 127 67 1 115 -18 159
-62 70 -69 66 -44 72 -585 6 -530 3 -503 64 -623 35 -69 123 -155 196 -192
120 -60 113 -60 818 -60 454 0 650 3 665 11 70 36 76 143 9 176 -9 4 -314 10
-677 13 -646 5 -661 5 -705 26 -57 27 -117 87 -144 144 -20 43 -21 63 -27 530
-4 337 -9 496 -17 522 -36 109 -127 213 -229 260 -260 122 -562 -42 -603 -327
-5 -38 -10 -263 -10 -500 l0 -430 -24 -51 c-52 -111 -143 -169 -266 -169 -89
1 -154 29 -212 93 -73 80 -73 83 -73 582 l0 444 37 8 c120 25 188 129 188 289
l0 49 43 0 c154 1 352 124 434 270 67 120 67 119 73 525 l5 370 82 3 c76 3 84
5 113 33 l30 31 -1 146 c0 86 -5 160 -12 179 -25 66 -73 119 -137 152 -61 30
-68 31 -186 31 l-123 0 -3 398 -3 397 -29 59 c-61 125 -209 180 -331 122 -56
-25 -106 -71 -133 -120 -15 -27 -18 -78 -22 -441 l-5 -410 -122 -3 -122 -3 -3
403 -3 403 -25 49 c-56 110 -189 170 -300 137z m106 -205 c18 -14 19 -32 22
-400 l3 -386 -61 0 -60 0 0 382 c0 341 2 383 17 400 19 22 52 23 79 4z m770
-7 c18 -20 19 -41 19 -398 l0 -376 -57 -3 -58 -3 0 382 c0 342 2 384 17 401
22 24 56 23 79 -3z m461 -1001 c19 -18 23 -32 23 -85 l0 -63 -119 0 c-145 0
-174 -5 -206 -38 -55 -54 -12 -162 64 -162 l31 0 0 -345 c0 -328 -1 -347 -21
-402 -31 -81 -123 -173 -203 -202 -57 -21 -70 -22 -470 -19 l-411 3 -49 25
c-77 39 -132 94 -168 168 l-33 67 -3 352 -3 353 289 0 289 0 26 25 c44 45 39
118 -10 151 -26 18 -57 19 -425 22 l-398 3 0 60 c0 50 4 64 25 84 l24 25 862
0 863 0 23 -22z m-759 -1578 c3 -81 -2 -84 -112 -88 -127 -5 -136 0 -136 84
l0 65 123 -3 122 -3 3 -55z"/>
<path d="M1463 3032 c-38 -6 -73 -50 -73 -94 0 -85 104 -132 163 -73 71 71 11
183 -90 167z"/>
</g>
</svg>
