<?xml version="1.0" standalone="no"?>
<!DOCTYPE svg PUBLIC "-//W3C//DTD SVG 20010904//EN"
 "http://www.w3.org/TR/2001/REC-SVG-20010904/DTD/svg10.dtd">
<svg version="1.0" xmlns="http://www.w3.org/2000/svg"
 width="512.000000pt" height="512.000000pt" viewBox="0 0 512.000000 512.000000"
 preserveAspectRatio="xMidYMid meet">

<g transform="translate(0.000000,512.000000) scale(0.100000,-0.100000)"
fill="#ebebeb" stroke="none">
<path d="M2621 4919 c-126 -25 -286 -102 -387 -187 -174 -146 -290 -365 -310
-586 l-6 -71 -102 -33 c-230 -74 -462 -193 -653 -335 -135 -101 -317 -283
-406 -407 -88 -123 -199 -347 -234 -472 -15 -56 -32 -98 -39 -98 -27 0 -116
101 -147 167 -29 61 -32 77 -32 158 0 79 4 98 30 155 36 77 38 132 6 183 -41
66 -137 87 -202 45 -44 -30 -104 -148 -125 -248 -33 -155 0 -346 84 -485 69
-115 184 -216 307 -270 60 -27 57 -19 70 -182 3 -40 17 -117 30 -170 89 -364
312 -688 650 -943 l90 -68 93 -398 c58 -252 99 -408 111 -424 10 -14 33 -34
52 -45 32 -19 52 -20 314 -20 262 0 282 1 314 20 19 11 42 31 52 45 11 14 40
114 67 230 43 185 50 205 67 202 61 -10 523 -13 600 -4 50 6 91 9 92 9 1 -1
22 -92 48 -202 26 -110 54 -213 64 -230 9 -16 32 -38 51 -50 33 -19 51 -20
320 -20 279 0 286 0 321 23 20 12 44 37 52 55 8 17 54 201 102 407 47 206 88
382 91 391 2 9 46 47 96 85 171 127 347 319 457 499 l43 70 187 79 c102 44
201 90 220 104 61 45 61 47 61 524 0 392 -2 436 -18 468 -24 48 -52 65 -263
155 l-184 78 -73 111 c-89 136 -211 277 -326 375 l-86 73 0 332 c0 369 -1 378
-69 423 -70 47 -263 22 -411 -52 -40 -20 -73 -35 -75 -33 -2 2 -16 33 -33 69
-112 249 -347 438 -612 494 -77 16 -275 19 -349 4z m313 -304 c181 -47 342
-199 397 -374 71 -225 0 -465 -181 -616 l-42 -35 -318 0 -318 0 -42 35 c-181
151 -252 391 -181 616 54 172 215 326 392 373 72 20 220 20 293 1z m954 -1082
c6 -12 54 -56 105 -96 170 -138 284 -269 392 -452 61 -104 42 -92 298 -200
l137 -58 0 -307 0 -307 -137 -58 c-237 -100 -241 -102 -300 -204 -114 -194
-277 -371 -467 -505 -54 -38 -105 -80 -113 -93 -9 -14 -55 -192 -102 -396
l-87 -372 -118 -3 c-66 -1 -123 1 -127 5 -5 5 -29 98 -54 208 -25 110 -54 216
-64 235 -11 23 -33 43 -64 59 l-48 23 -107 -17 c-166 -28 -514 -32 -684 -9
-173 24 -210 24 -244 -2 -51 -38 -64 -68 -109 -264 -25 -107 -47 -205 -50
-217 -5 -22 -9 -23 -130 -23 -109 0 -124 2 -129 18 -2 9 -41 177 -87 372 -52
225 -89 365 -101 382 -10 15 -58 55 -106 87 -551 379 -763 981 -537 1527 160
386 523 703 1003 874 l108 38 36 -76 c20 -42 44 -89 54 -104 17 -25 17 -27 -8
-57 -63 -75 -42 -181 45 -229 29 -16 85 -17 697 -17 612 0 668 1 697 17 87 48
108 154 46 229 l-26 31 22 36 c60 99 99 209 127 358 6 32 86 107 152 142 l57
31 5 -292 c4 -208 9 -298 18 -314z"/>
<path d="M3739 2877 c-39 -26 -69 -79 -69 -122 0 -43 30 -96 69 -122 71 -48
175 -20 213 57 50 98 -21 210 -132 210 -32 0 -58 -7 -81 -23z"/>
</g>
</svg>
