<?xml version="1.0" standalone="no"?>
<!DOCTYPE svg PUBLIC "-//W3C//DTD SVG 20010904//EN"
 "http://www.w3.org/TR/2001/REC-SVG-20010904/DTD/svg10.dtd">
<svg version="1.0" xmlns="http://www.w3.org/2000/svg"
 width="512.000000pt" height="512.000000pt" viewBox="0 0 512.000000 512.000000"
 preserveAspectRatio="xMidYMid meet">

<g transform="translate(0.000000,512.000000) scale(0.100000,-0.100000)"
fill="#ebebeb" stroke="none">
<path d="M2775 3795 c-133 -25 -254 -66 -285 -96 -49 -50 -48 -119 4 -170 28
-27 36 -30 81 -26 28 2 95 16 150 31 581 158 1173 -232 1256 -829 10 -73 17
-94 42 -121 39 -45 78 -51 163 -24 196 60 391 17 529 -117 107 -105 159 -228
159 -378 1 -186 -100 -356 -266 -449 -121 -67 -91 -66 -1124 -66 l-931 0 -34
-23 c-18 -12 -40 -34 -47 -47 -20 -39 -8 -98 27 -134 l31 -31 955 -3 c1033 -3
1020 -3 1155 51 99 40 169 87 251 167 372 366 272 990 -195 1219 -124 61 -189
75 -350 76 l-139 1 -24 84 c-126 437 -477 768 -926 871 -120 28 -365 35 -482
14z"/>
<path d="M1309 3317 c-62 -41 -60 -10 -57 -1011 3 -850 4 -913 21 -937 50 -74
167 -70 208 8 12 22 14 173 14 952 0 1009 3 954 -58 991 -42 26 -86 25 -128
-3z"/>
<path d="M1959 3297 c-21 -14 -39 -37 -47 -61 -10 -31 -12 -232 -10 -940 l3
-901 23 -32 c47 -66 147 -66 194 0 l23 32 0 920 c0 887 -1 921 -19 948 -40 58
-110 73 -167 34z"/>
<path d="M693 2816 c-18 -8 -42 -30 -53 -48 -20 -32 -20 -45 -18 -640 3 -597
3 -607 24 -635 11 -15 39 -34 61 -41 53 -17 104 2 133 50 20 32 20 45 18 645
l-3 613 -30 29 c-36 36 -88 46 -132 27z"/>
<path d="M81 2627 c-19 -7 -44 -25 -55 -40 -21 -28 -21 -36 -21 -558 l0 -529
30 -30 c39 -38 90 -48 137 -26 70 34 68 16 68 588 0 547 0 543 -50 579 -35 25
-69 30 -109 16z"/>
</g>
</svg>
